HIERARCHY
ROOT Hips
{
  OFFSET 52.6681 96.6459 54.3921
  CHANNELS 6 Xposition Yposition Zposition Zrotation Xrotation Yrotation
  JOINT spine
  {
    OFFSET 0 8.13249 0.467659
    CHANNELS 3 Zrotation Xrotation Yrotation
    JOINT spine1
    {
      OFFSET 0 10.3498 0
      CHANNELS 3 Zrotation Xrotation Yrotation
      JOINT spine2
      {
        OFFSET 0 9.91699 0
        CHANNELS 3 Zrotation Xrotation Yrotation
        JOINT Neck
        {
          OFFSET 0 25.461 1.2139
          CHANNELS 3 Zrotation Xrotation Yrotation
          JOINT Head
          {
            OFFSET 0 7.69245 0
            CHANNELS 3 Zrotation Xrotation Yrotation
            End Site
            {
              OFFSET 0 18.62 -6.14063
            }
          }
        }
        JOINT RightShoulder
        {
          OFFSET -4.17575 10.7096 -0.581445
          CHANNELS 3 Zrotation Xrotation Yrotation
          JOINT RightArm
          {
            OFFSET 0 14.0466 0
            CHANNELS 3 Zrotation Xrotation Yrotation
            JOINT RightArmRoll
            {
              OFFSET 0 7.09098 0
              CHANNELS 3 Zrotation Xrotation Yrotation
              JOINT RightForeArm
              {
                OFFSET 0 20.6535 0
                CHANNELS 3 Zrotation Xrotation Yrotation
                JOINT RightForeArmRoll
                {
                  OFFSET 0 7.95718 0
                  CHANNELS 3 Zrotation Xrotation Yrotation
                  JOINT RightHand
                  {
                    OFFSET 0 15.9683 0
                    CHANNELS 3 Zrotation Xrotation Yrotation
                    End Site
                    {
                      OFFSET 0 0 0
                    }
                  }
                }
              }
            }
          }
        }
        JOINT LeftShoulder
        {
          OFFSET 4.17575 10.7096 -0.581445
          CHANNELS 3 Zrotation Xrotation Yrotation
          JOINT LeftArm
          {
            OFFSET 0 14.0466 0
            CHANNELS 3 Zrotation Xrotation Yrotation
            JOINT LeftArmRoll
            {
              OFFSET 0 7.09098 0
              CHANNELS 3 Zrotation Xrotation Yrotation
              JOINT LeftForeArm
              {
                OFFSET 0 20.6535 0
                CHANNELS 3 Zrotation Xrotation Yrotation
                JOINT LeftForeArmRoll
                {
                  OFFSET 0 7.95718 0
                  CHANNELS 3 Zrotation Xrotation Yrotation
                  JOINT LeftHand
                  {
                    OFFSET 0 15.9683 0
                    CHANNELS 3 Zrotation Xrotation Yrotation
                    End Site
                    {
                      OFFSET 0 0 0
                    }
                  }
                }
              }
            }
          }
        }
      }
    }
  }
  JOINT RightUpLeg
  {
    OFFSET -7.20834 -1.32182 -1.10884
    CHANNELS 3 Zrotation Xrotation Yrotation
    JOINT RightUpLegRoll
    {
      OFFSET 0 18.7238 0
      CHANNELS 3 Zrotation Xrotation Yrotation
      JOINT RightLeg
      {
        OFFSET 0 -23.1866 0
        CHANNELS 3 Zrotation Xrotation Yrotation
        JOINT RightLegRoll
        {
          OFFSET 0 23.2624 0
          CHANNELS 3 Zrotation Xrotation Yrotation
          JOINT RightFoot
          {
            OFFSET 0 19.3621 0
            CHANNELS 3 Zrotation Xrotation Yrotation
            JOINT RightToeBase
            {
              OFFSET 0 16.1857 0
              CHANNELS 3 Zrotation Xrotation Yrotation
              End Site
              {
                OFFSET 0.00686052 7.83863 -0.903522
              }
            }
          }
        }
      }
    }
  }
  JOINT LeftUpLeg
  {
    OFFSET 7.20834 -1.32182 -1.10884
    CHANNELS 3 Zrotation Xrotation Yrotation
    JOINT LeftUpLegRoll
    {
      OFFSET 0 18.7239 0
      CHANNELS 3 Zrotation Xrotation Yrotation
      JOINT LeftLeg
      {
        OFFSET 0 23.1865 0
        CHANNELS 3 Zrotation Xrotation Yrotation
        JOINT LeftLegRoll
        {
          OFFSET 0 23.4775 0
          CHANNELS 3 Zrotation Xrotation Yrotation
          JOINT LeftFoot
          {
            OFFSET 0 19.147 0
            CHANNELS 3 Zrotation Xrotation Yrotation
            JOINT LeftToeBase
            {
              OFFSET 0 16.1857 0
              CHANNELS 3 Zrotation Xrotation Yrotation
              End Site
              {
                OFFSET -0.0307459 7.83863 -0.903522
              }
            }
          }
        }
      }
    }
  }
}
MOTION
Frames: 12
Frame Time: 0.00208333
54.4085 58.0898 14.8717 -2.87627 -9.13478 3.61952 0.840095 1.47531 -0.913298 1.73561 6.93832 -1.9619 1.76352 8.58257 -1.99468 0.154533 -3.41746 -3.4866 1.93253 3.80958 -3.39364 59.4146 -10.8348 -6.74383 124.106 34.3927 -22.4375 -6.94764e-006 4.89108e-006 -5.64401e-006 19.1461 37.6103 -7.82325 -7.21531e-006 -5.57024e-006 -2.99999 8.02891 -4.95093 0.69742 -60.6987 -9.90936 6.17381 -122.357 35.2883 24.7699 -9.5512e-007 3.21862e-007 8.89489e-006 -11.9157 31.476 3.44567 -2.4057e-006 -4.80675e-006 3.00001 -8.02895 -4.95145 -0.697691 131.827 68.636 52.5401 180 1.52564e-005 178.984 165.998 82.5421 -170.973 -5.45647e-007 -1.92831e-007 1.82884 -20.6652 66.572 18.3314 8.13649 25.2327 -3.48774 -142.858 74.4813 -39.073 4.5067e-006 -1.99009e-005 -1.54701 11.0795 -81.2162 12.1849 3.90874e-006 8.85163e-006 -2.22853 19.2659 61.953 -15.0399 -8.1365 25.2327 3.48774 
54.4127 58.0919 14.8712 -2.87613 -9.1358 3.61824 0.840787 1.47596 -0.913107 1.73611 6.93963 -1.96155 1.76401 8.58387 -1.99433 0.14921 -3.41304 -3.48768 1.9302 3.80742 -3.39554 59.4085 -10.8355 -6.74429 124.113 34.3934 -22.439 -6.94764e-006 4.89108e-006 -5.64401e-006 19.1432 37.6129 -7.82314 -7.21531e-006 -5.57024e-006 -2.99999 8.02891 -4.95093 0.69742 -60.7018 -9.91107 6.17486 -122.356 35.2948 24.7651 -9.5512e-007 3.21862e-007 8.89489e-006 -11.9159 31.4633 3.44479 -2.4057e-006 -4.80675e-006 3.00001 -8.02895 -4.95145 -0.697691 131.828 68.6372 52.5385 180 1.52564e-005 178.984 166 82.5432 -170.975 -5.45647e-007 -1.92831e-007 1.82884 -20.667 66.5751 18.3339 8.13649 25.2327 -3.48774 -142.855 74.4798 -39.0766 4.5067e-006 -1.99009e-005 -1.54702 11.0802 -81.2168 12.1856 3.90874e-006 8.85163e-006 -2.22853 19.265 61.9503 -15.0382 -8.1365 25.2327 3.48774 
54.4173 58.1 14.8845 -2.87602 -9.1371 3.61711 0.841535 1.47666 -0.912935 1.73665 6.94103 -1.96123 1.76455 8.58527 -1.99403 0.144041 -3.40881 -3.48881 1.92757 3.80518 -3.39748 59.4024 -10.8363 -6.74484 124.121 34.3943 -22.4406 -6.94764e-006 4.89108e-006 -5.64401e-006 19.1403 37.6153 -7.82294 -7.21531e-006 -5.57024e-006 -2.99999 8.02891 -4.95093 0.69742 -60.705 -9.91275 6.1759 -122.354 35.3016 24.7601 -9.5512e-007 3.21862e-007 8.89489e-006 -11.916 31.45 3.44387 -2.4057e-006 -4.80675e-006 3.00001 -8.02895 -4.95145 -0.697691 131.829 68.6379 52.5366 180 1.52564e-005 178.984 166.001 82.5442 -170.976 -5.45647e-007 -1.92831e-007 1.82884 -20.669 66.5783 18.3365 8.13649 25.2327 -3.48774 -142.853 74.478 -39.079 4.5067e-006 -1.99009e-005 -1.54703 11.081 -81.2173 12.1863 3.90874e-006 8.85163e-006 -2.22853 19.2642 61.9475 -15.0365 -8.1365 25.2327 3.48774 
54.4117 58.0948 14.8816 -2.87593 -9.13857 3.61607 0.842322 1.47739 -0.912777 1.73721 6.94249 -1.96094 1.76512 8.58674 -1.99375 0.138978 -3.40471 -3.48998 1.92472 3.8029 -3.39946 59.3963 -10.8372 -6.74544 124.129 34.3953 -22.4424 -6.94764e-006 4.89108e-006 -5.64401e-006 19.1373 37.6175 -7.82268 -7.21531e-006 -5.57024e-006 -2.99999 8.02891 -4.95093 0.69742 -60.7082 -9.91441 6.17692 -122.353 35.3086 24.755 -9.5512e-007 3.21862e-007 8.89489e-006 -11.9162 31.4362 3.44293 -2.4057e-006 -4.80675e-006 3.00001 -8.02895 -4.95145 -0.697691 131.831 68.6384 52.5346 180 1.52564e-005 178.984 166.002 82.5453 -170.976 -5.45647e-007 -1.92831e-007 1.82884 -20.6711 66.5817 18.3392 8.13649 25.2327 -3.48774 -142.852 74.4761 -39.0808 4.5067e-006 -1.99009e-005 -1.54704 11.0819 -81.2178 12.1871 3.90874e-006 8.85163e-006 -2.22853 19.2634 61.9446 -15.0347 -8.1365 25.2327 3.48774 
54.4077 58.091 14.87 -2.87585 -9.14015 3.6151 0.843131 1.47815 -0.912628 1.7378 6.944 -1.96068 1.7657 8.58824 -1.99349 0.133977 -3.40069 -3.49116 1.92176 3.80059 -3.40146 59.3902 -10.8381 -6.74607 124.137 34.3965 -22.4442 -6.94764e-006 4.89108e-006 -5.64401e-006 19.1343 37.6196 -7.82238 -7.21531e-006 -5.57024e-006 -2.99999 8.02891 -4.95093 0.69742 -60.7115 -9.91606 6.17794 -122.351 35.3157 24.7497 -9.5512e-007 3.21862e-007 8.89489e-006 -11.9164 31.4222 3.44197 -2.4057e-006 -4.80675e-006 3.00001 -8.02895 -4.95145 -0.697691 131.832 68.6386 52.5324 180 1.52564e-005 178.984 166.003 82.5463 -170.977 -5.45647e-007 -1.92831e-007 1.82884 -20.6732 66.585 18.3419 8.13649 25.2327 -3.48774 -142.851 74.4741 -39.0821 4.5067e-006 -1.99009e-005 -1.54705 11.0828 -81.2183 12.1879 3.90874e-006 8.85163e-006 -2.22853 19.2626 61.9417 -15.0329 -8.1365 25.2327 3.48774 
54.4092 58.0886 14.8729 -2.87578 -9.14176 3.61413 0.843946 1.47891 -0.91248 1.73838 6.94551 -1.96041 1.76629 8.58975 -1.99324 0.128991 -3.3967 -3.49235 1.91876 3.79828 -3.40346 59.384 -10.8391 -6.7467 124.145 34.3976 -22.446 -6.94764e-006 4.89108e-006 -5.64401e-006 19.1314 37.6217 -7.82208 -7.21531e-006 -5.57024e-006 -2.99999 8.02891 -4.95093 0.69742 -60.7148 -9.91771 6.17895 -122.35 35.3228 24.7444 -9.5512e-007 3.21862e-007 8.89489e-006 -11.9165 31.4082 3.441 -2.4057e-006 -4.80675e-006 3.00001 -8.02895 -4.95145 -0.697691 131.834 68.6388 52.5302 180 1.52564e-005 178.984 166.004 82.5473 -170.978 -5.45647e-007 -1.92831e-007 1.82884 -20.6754 66.5885 18.3446 8.13649 25.2327 -3.48774 -142.85 74.472 -39.0833 4.5067e-006 -1.99009e-005 -1.54706 11.0837 -81.2188 12.1888 3.90874e-006 8.85163e-006 -2.22853 19.2617 61.9388 -15.0311 -8.1365 25.2327 3.48774 
54.4143 58.0867 14.8814 -2.8757 -9.14331 3.61314 0.84475 1.47966 -0.912328 1.73896 6.947 -1.96014 1.76687 8.59125 -1.99297 0.123975 -3.39266 -3.49353 1.91582 3.79597 -3.40545 59.3779 -10.84 -6.74733 124.153 34.3987 -22.4478 -6.94764e-006 4.89108e-006 -5.64401e-006 19.1284 37.6238 -7.8218 -7.21531e-006 -5.57024e-006 -2.99999 8.02891 -4.95093 0.69742 -60.718 -9.91936 6.17997 -122.349 35.3299 24.7392 -9.5512e-007 3.21862e-007 8.89489e-006 -11.9167 31.3943 3.44004 -2.4057e-006 -4.80675e-006 3.00001 -8.02895 -4.95145 -0.697691 131.836 68.6391 52.5281 180 1.52564e-005 178.984 166.005 82.5483 -170.978 -5.45647e-007 -1.92831e-007 1.82884 -20.6775 66.5918 18.3474 8.13649 25.2327 -3.48774 -142.849 74.47 -39.0847 4.5067e-006 -1.99009e-005 -1.54707 11.0847 -81.2192 12.1896 3.90874e-006 8.85163e-006 -2.22853 19.2609 61.9359 -15.0294 -8.1365 25.2327 3.48774 
54.4143 58.0896 14.8802 -2.87561 -9.14474 3.61208 0.845526 1.48038 -0.912167 1.73952 6.94845 -1.95984 1.76743 8.59269 -1.99269 0.118883 -3.38853 -3.49468 1.91303 3.79371 -3.40742 59.3718 -10.8409 -6.74791 124.161 34.3997 -22.4495 -6.94764e-006 4.89108e-006 -5.64401e-006 19.1254 37.6261 -7.82155 -7.21531e-006 -5.57024e-006 -2.99999 8.02891 -4.95093 0.69742 -60.7213 -9.92103 6.181 -122.347 35.3369 24.7341 -9.5512e-007 3.21862e-007 8.89489e-006 -11.9169 31.3807 3.43911 -2.4057e-006 -4.80675e-006 3.00001 -8.02895 -4.95145 -0.697691 131.837 68.6396 52.5261 180 1.52564e-005 178.984 166.006 82.5494 -170.979 -5.45647e-007 -1.92831e-007 1.82884 -20.6796 66.5951 18.35 8.13649 25.2327 -3.48774 -142.848 74.4681 -39.0867 4.5067e-006 -1.99009e-005 -1.54709 11.0855 -81.2198 12.1903 3.90874e-006 8.85163e-006 -2.22853 19.2601 61.933 -15.0276 -8.1365 25.2327 3.48774 
54.4094 58.0906 14.8708 -2.87549 -9.14595 3.6109 0.846257 1.48107 -0.911989 1.74005 6.94982 -1.95952 1.76796 8.59406 -1.99237 0.113668 -3.38424 -3.4958 1.91049 3.7915 -3.40935 59.3657 -10.8417 -6.74843 124.169 34.4005 -22.4511 -6.94764e-006 4.89108e-006 -5.64401e-006 19.1225 37.6285 -7.82138 -7.21531e-006 -5.57024e-006 -2.99999 8.02891 -4.95093 0.69742 -60.7244 -9.92272 6.18204 -122.346 35.3436 24.7291 -9.5512e-007 3.21862e-007 8.89489e-006 -11.917 31.3675 3.4382 -2.4057e-006 -4.80675e-006 3.00001 -8.02895 -4.95145 -0.697691 131.839 68.6405 52.5243 180 1.52564e-005 178.984 166.007 82.5504 -170.98 -5.45647e-007 -1.92831e-007 1.82884 -20.6815 66.5983 18.3526 8.13649 25.2327 -3.48774 -142.846 74.4664 -39.0895 4.5067e-006 -1.99009e-005 -1.54709 11.0863 -81.2203 12.1911 3.90874e-006 8.85163e-006 -2.22853 19.2593 61.9303 -15.0259 -8.1365 25.2327 3.48774 
54.4065 58.0844 14.8725 -2.87533 -9.14687 3.60957 0.846928 1.4817 -0.911789 1.74053 6.95109 -1.95914 1.76844 8.59533 -1.992 0.108286 -3.37973 -3.49686 1.90828 3.78936 -3.41123 59.3597 -10.8423 -6.74887 124.177 34.4011 -22.4526 -6.94764e-006 4.89108e-006 -5.64401e-006 19.1196 37.6313 -7.82129 -7.21531e-006 -5.57024e-006 -2.99999 8.02891 -4.95093 0.69742 -60.7275 -9.92444 6.1831 -122.344 35.35 24.7244 -9.5512e-007 3.21862e-007 8.89489e-006 -11.9172 31.355 3.43735 -2.4057e-006 -4.80675e-006 3.00001 -8.02895 -4.95145 -0.697691 131.839 68.6418 52.5228 180 1.52564e-005 178.984 166.009 82.5515 -170.982 -5.45647e-007 -1.92831e-007 1.82884 -20.6833 66.6014 18.3551 8.13649 25.2327 -3.48774 -142.842 74.465 -39.0935 4.5067e-006 -1.99009e-005 -1.5471 11.087 -81.2209 12.1917 3.90874e-006 8.85163e-006 -2.22853 19.2584 61.9276 -15.0243 -8.1365 25.2327 3.48774 
54.4097 58.0828 14.8776 -2.87513 -9.14742 3.60803 0.84752 1.48227 -0.911561 1.74096 6.95222 -1.95871 1.76886 8.59646 -1.99158 0.10269 -3.37496 -3.49786 1.9065 3.78732 -3.41304 59.3537 -10.8427 -6.74919 124.185 34.4014 -22.4538 -6.94764e-006 4.89108e-006 -5.64401e-006 19.1168 37.6344 -7.82133 -7.21531e-006 -5.57024e-006 -2.99999 8.02891 -4.95093 0.69742 -60.7304 -9.9262 6.18418 -122.343 35.3561 24.72 -9.5512e-007 3.21862e-007 8.89489e-006 -11.9173 31.3433 3.43655 -2.4057e-006 -4.80675e-006 3.00001 -8.02895 -4.95145 -0.697691 131.84 68.6438 52.5217 180 1.52564e-005 178.984 166.011 82.5526 -170.984 -5.45647e-007 -1.92831e-007 1.82884 -20.6848 66.6042 18.3574 8.13649 25.2327 -3.48774 -142.837 74.4639 -39.099 4.5067e-006 -1.99009e-005 -1.5471 11.0875 -81.2215 12.1923 3.90874e-006 8.85163e-006 -2.22853 19.2576 61.9251 -15.0228 -8.1365 25.2327 3.48774 
54.4147 58.0888 14.8763 -2.87488 -9.14752 3.60626 0.848018 1.48275 -0.9113 1.74132 6.95319 -1.95821 1.76922 8.59743 -1.99108 0.096834 -3.36985 -3.49878 1.90524 3.7854 -3.41477 59.3478 -10.843 -6.74938 124.193 34.4014 -22.4548 -6.94764e-006 4.89108e-006 -5.64401e-006 19.1141 37.6379 -7.82151 -7.21531e-006 -5.57024e-006 -2.99999 8.02891 -4.95093 0.69742 -60.7331 -9.92802 6.1853 -122.341 35.3618 24.7159 -9.5512e-007 3.21862e-007 8.89489e-006 -11.9174 31.3326 3.43582 -2.4057e-006 -4.80675e-006 3.00001 -8.02895 -4.95145 -0.697691 131.84 68.6465 52.5211 180 1.52564e-005 178.984 166.014 82.5538 -170.986 -5.45647e-007 -1.92831e-007 1.82884 -20.686 66.6068 18.3595 8.13649 25.2327 -3.48774 -142.83 74.4631 -39.1064 4.5067e-006 -1.99009e-005 -1.5471 11.0878 -81.2223 12.1928 3.90874e-006 8.85163e-006 -2.22853 19.2568 61.9228 -15.0213 -8.1365 25.2327 3.48774 
